<svg version="1" xmlns="http://www.w3.org/2000/svg" width="5689.333" height="5689.333" viewBox="0 0 4267.000000 4267.000000"><path d="M2471 225.7c-6.4 4.4-9.7 9.8-18 29.3-5.5 13-8.6 19.2-14.7 30-1.1 1.9-4.1 7.5-6.8 12.5-2.6 4.9-5.1 9.4-5.5 10-.4.5-3.3 5.9-6.5 12-3.2 6-7 13.2-8.5 16-3 5.5-9 16.8-16.8 31.5-8.3 15.8-24.6 48.1-27.1 54-1.3 3-4.8 11.3-7.7 18.3-12.7 29.9-17.8 38.9-30.8 54.5-14.7 17.5-30.7 32.5-65.1 61.1-5.7 4.6-21.7 16.2-27.1 19.4-11.1 6.6-28.6 14.5-40.9 18.3-10.5 3.2-13.5 3.7-23.7 4-6.4.1-13.4-.1-15.5-.6-2.1-.4-6.2-1.1-9.1-1.4-9.9-1.1-12.3-1.7-20.6-5.1-12.9-5.2-32.6-15.5-35.6-18.5-.3-.3-3-2.4-6-4.6-6.5-4.8-26.6-21.9-29.5-25-1.1-1.2-4.9-5.5-8.5-9.4-7.5-8.4-10.5-10.7-14.9-11.5-3.5-.6-9.4 1.9-12.6 5.5-1.9 2.1-2 3.7-2.1 45.9-.1 39.9-.9 85.5-1.9 110.6-1 25.2-1.6 36.4-2 42-1.4 16.7-1.7 20-3.5 32.5-.5 3.6-1.1 7.8-1.4 9.5-3.7 26.6-10.7 52.8-18.3 69.3-1.8 3.9-3.3 7.4-3.3 7.6 0 .2-2 4.6-4.4 9.7-2.4 5.2-7.5 16.4-11.4 24.9-28.8 63.9-39.8 88-46.7 102.5-1.8 3.8-5.1 10.8-7.3 15.5-2.2 4.7-11.8 24.5-21.5 44-9.6 19.5-19.1 39.3-21.2 44-6.5 14.8-17.9 46.9-21 59-3.1 11.8-4.9 20.4-6 28.5-.3 2.2-1 6.2-1.5 9-2.8 14.5-4.2 31.1-4.6 52-.5 31.6-.9 35.8-4.8 54-5.2 23.8-5.8 25.6-8.8 27.8-6.7 5-20.5 2.6-44.3-7.6-35.5-15.2-78-40.4-106.5-63.2-5.2-4.2-10.2-8.1-11-8.8-.8-.7-5.1-4.1-9.5-7.7-4.4-3.6-11.8-9.7-16.5-13.5-22-18-28.6-24-49-44.5-26.5-26.5-34.9-35.8-48.9-54-4.4-5.8-9.1-11.8-10.3-13.4-1.3-1.6-3.6-4.8-5.3-7.1-1.6-2.3-6.8-9.6-11.5-16.1-4.7-6.5-10-14.2-11.7-17.1-6.9-11.1-19.5-36.5-23.4-46.9-5.8-15.5-9.6-23.2-12.6-25.1-2.4-1.6-2.8-1.6-7.7 1-10 5.3-16 12.7-31.1 39.2-17.3 30.2-20.6 33.9-42.1 47.2-16.1 9.9-27.6 14.5-36.5 14.5-11.5-.1-50.8-9.9-69.4-17.2-13.5-5.4-46.1-21.2-54.5-26.5-2.2-1.4-4.2-2.5-4.5-2.5-2.1 0-30.7-19.6-41-28.1-28-23.1-48-43-76-75.4-3.3-3.8-7.6-8.7-9.6-11-3.4-3.8-22.3-26.6-27.4-33-1.3-1.7-4.3-5.5-6.8-8.5-2.4-3-12.2-15.4-21.8-27.5-9.5-12.1-17.6-22.2-17.9-22.5-.3-.3-2.5-3-5-6-5.1-6.3-8.1-9.8-9.5-11.4-35.8-40.7-56.2-59.8-81.5-76.6-10.1-6.7-21.9-12.7-26-13.2-6.3-.8-7.4 12.7-2.6 31.5 1.9 7.5 5.2 15.3 14 33 9.4 18.8 12.9 27.2 18.5 44.2 11.5 34.6 20 65.4 27.3 99 2.6 12.2 2.5 11.4 3.4 16.5.4 2.5.8 4.7.9 5 .2.8 1.6 10.1 2.1 14 .3 1.9.8 4.8 1 6.5.3 1.6.7 4.8 1 7 .2 2.2.6 5.6.9 7.5.7 5.3 2.5 23.2 4 38.5 2.6 27.8 2.6 94.6 0 110.6-.2 1.3-.6 4.6-1 7.4-.9 7-1.5 11.1-2.5 17.5-.5 3-1.2 6.8-1.4 8.5-3.5 22.1-9.2 48-13.1 60-5.2 15.8-14.9 36.2-22.7 47.8-5 7.4-10.8 13.2-20 19.9-10.6 7.8-17.2 11.3-29.5 15.7-19.6 6.9-23.1 9.8-21.9 17.4 1.7 10.1 5.4 13.4 22.2 19.1 12.2 4.2 27.2 10.4 38.2 15.8 16.2 8 25.9 24 24.6 40.7-.3 4.2-5.6 21.5-8.4 27.6-.5 1.1-2.1 4.9-3.6 8.5-4.8 11.8-8.5 18.3-17.2 30.5-14.6 20.5-14.1 20-28.8 31-25.6 19.2-34.9 24-60.1 30.9-22.2 6-27.9 7-41.3 6.9-11.3 0-15.8-.3-31-1.8-2.5-.2-7.4-.7-11-1-3.6-.4-7.6-.8-9-1-1.4-.2-4.3-.6-6.5-1-3.9-.5-6.2-.9-11.5-2-1.4-.2-3.7-.7-5.3-.9-3.2-.6-13.2-2.4-16.7-3.1-1.4-.3-5-.9-8-1.5s-6.6-1.2-8-1.5c-11.4-2.2-22.4-3.9-33.5-5-3.3-.3-7.3-.8-9-1-1.6-.3-5.2-.7-8-1-2.7-.3-6.6-.8-8.5-1-1.9-.3-6.2-.7-9.5-1-3.3-.3-7.6-.7-9.5-1-13.2-1.9-49.3-2.7-59-1.4-8.2 1.2-10 1.7-10 3.2 0 2.7 38.4 41.5 69 69.7 6.2 5.8 11.8 11 12.4 11.5 1.5 1.4 27.4 24.4 36.1 32.1 7 6.1 24.7 21.1 32.1 27.1 7 5.7 46 36.7 49 39 1.6 1.2 4 3.1 5.4 4.2 3.5 2.8 28.7 22.5 73.5 57.2 44.4 34.5 123.3 97.3 131.1 104.4.7.5 3.8 3.2 7 6 7.9 6.8 17.2 15.1 21 18.9 1.7 1.7 8.7 8.6 15.5 15.2 44.7 43.7 55.1 58.9 58.8 85.4.8 6.4.7 50.1-.2 59-2.3 23.3-9.2 45.5-18.4 59.5-5.6 8.6-6.5 9.8-14 18.7-14.3 16.9-26.1 25.1-46.2 31.8-8.1 2.7-10.9 3.2-20.5 3.3-10.7.1-37.5-1.1-38.6-1.8-.6-.4-21.7-1.4-41.5-2-18.8-.6-37-2-42-3.2-4.6-1.1-25.6-.9-33.5.3-4.7.8-10.3 1.6-12.5 2-7.1 1-26.9 5.2-29.5 6.2-1.4.5-2.8 1-3.3 1.1-2.3.2-14.3 4.1-30.2 9.7-31.7 11.1-78.7 27-88 29.8-12.3 3.6-27.2 6.3-48.5 8.6-7.2.8-43.4.5-55-.5-3-.2-9.2-.7-13.7-1-4.6-.4-9.3-.8-10.5-1-1.3-.2-5-.6-8.3-1-3.2-.4-6.6-.8-7.5-1-.8-.1-4-.6-7.1-.9-3.1-.4-6.6-.9-7.8-1.1-1.2-.2-5.9-.9-10.4-1.6-4.5-.6-13.8-3.2-20.7-5.6-19.1-6.7-27.4-9.1-33.5-9.6-11.8-1.1-16.3 2.9-12.5 10.9 3.5 7.1 15.3 18.2 28.7 27 6.7 4.3 17.5 11.4 24 15.6 12.5 8.1 28.9 21.8 55.7 46.2 1.7 1.5 4.9 4.4 7.1 6.5 11.4 10.4 30.2 27.7 31.6 29 .9.9 5.5 5.2 10.3 9.6 4.9 4.4 9.8 8.9 11 10 3.4 3.1 22.3 19.9 33.9 30.3 14.3 12.7 76.8 59.4 114.7 85.8 4.7 3.2 9 6.2 9.5 6.7 4.6 3.8 49.1 33.7 60.7 40.8 2.4 1.5 14.4 8.9 26.8 16.4 32.6 20 58.7 37.4 69 46.1 38.4 32.3 69.9 65.3 78.3 82 2.5 5 7.3 17.7 8.1 21.7 4.5 20.6 4.9 25.6 3.2 38-1.2 8.6-5.2 22.4-8 27.1-5.1 8.7-20.5 19.5-49.1 34.6-25.5 13.4-41.5 22.9-49.1 29.1-9.2 7.6-14.8 16.2-14.6 22.5.3 8.1 4.5 11.5 14.5 11.7 6.2.1 19.6-1.1 20.8-1.9.4-.2 2.4-.6 4.5-.9 2.2-.2 5-.7 6.4-1 6.6-1.3 9-1.5 15.5-1.5 3.9-.1 8.1.2 9.5.5 1.4.3 4.5.7 7 1 4.4.6 11 1.5 14 2 .8.1 3.7.6 6.3.9 2.7.4 5.9.9 7 1.2 1.2.2 3.7.7 5.6 1 1.8.3 4.3.8 5.5 1 2.3.4 12 2.2 16.3 3 6.4 1.1 29.3 5.6 35.3 6.9 3.6.8 7.9 1.6 9.7 1.9 1.7.4 11.8 2.4 22.5 4.5 24.4 4.9 49.5 9.9 52.8 10.5 25.8 4.3 113.5 22.7 127.4 26.7 2.1.6 4.6 1.2 5.5 1.4 7.4 1.4 33 9.7 44.1 14.3 22.2 9.1 56 26.1 66.2 33.3 1.4 1.1 2.9 1.9 3.2 1.9.4 0 1.2.4 1.9 1 .7.5 3.7 2.8 6.7 5 17.9 13.1 47.9 51.3 61.7 78.5 8.9 17.4 9.4 20.2 9.3 44.5-.3 30.8-1.4 42.4-6 60.5-2.2 8.2-4.2 16.8-4.5 19-.4 2.2-1 6.2-1.5 9-1.1 7-1 19.9.3 24 2.5 8.2 10.2 10.2 19.1 5 5.6-3.3 17.7-16.1 27.6-29.2 4.1-5.4 7.9-10.3 8.5-11 .5-.7 1.5-1.8 2-2.5 5.8-7.7 10.9-12.1 31.5-27.6 9.2-6.9 39.1-26.2 40.6-26.2.2 0 2.7-1.4 5.6-3.1 5.6-3.3 9.7-5.5 31.3-17.1 16.1-8.6 28-14.9 45-23.8 13.3-7 22.4-11.8 30-16 2.8-1.5 10.6-5.8 17.5-9.5s14.8-8 17.5-9.5c24.4-13.4 52.7-25.4 67.5-28.6 4.3-1 3.9-.9 7.5-1.7 1.7-.4 3.9-.9 5-1.2 5.5-1.1 9.5-2.9 20.4-8.9 6.5-3.6 13.8-7.3 16.2-8.2 4.9-1.7 22.8-6.1 28-6.8 21.7-3 29.1-3.6 34.2-2.4 6.2 1.4 16.9 9.4 32.5 24.3 4.6 4.4 11.4 10.8 15.1 14.3 8.3 7.9 18.2 15.5 24.1 18.4 3.7 1.9 6.2 2.2 14.5 2.2 14.2 0 19.5-.8 26.7-4.3 9.3-4.4 14.4-8.8 19.7-16.6 6.5-9.7 8.1-13.5 10.3-24.5 2.8-14.4 2.6-20.4-.7-27-5.2-10.5-15.5-26.8-20-31.8-6-6.6-19.3-13.1-39.5-19-7.4-2.2-30.5-5.7-36.5-5.5-3.7.1-16.6 1.4-17.8 1.8-.7.2-2.8.6-4.7.9-1.9.3-4.6.8-6 1.1-1.4.3-3.8.7-5.5 1-4.7.8-11.8 2.4-27 6-15.1 3.7-30.2 7.1-35 7.9-1.6.3-5.5 1-8.5 1.6-3 .6-6.6 1.3-8 1.6-2.2.4-7.6 1.6-9 1.9-.3.1-2.3.5-4.5.9-5.5 1.1-21.7 6.3-28.8 9.2-17.8 7.5-54 25.6-72 36-3.2 1.9-6 3.4-6.2 3.4-.5 0-17.7 10.3-23 13.8-6.7 4.4-46.1 34.5-47.5 36.3-1.7 2.1-28 20.7-38.7 27.3-31.1 19.3-43.7 27.8-60.2 40.4-26.9 20.7-42.1 33-47.4 38.4-4.5 4.7-5 4.9-7 3.5-6.1-4-6.6-16.1-1.8-39.8 3.8-18.6 4.1-25.8 1.6-36.4-.9-3.9-1.8-7.7-2-8.6-2.2-11-8.9-28.8-14.2-37.8-3.8-6.4-15.6-23.6-17.3-25.1-.3-.3-3.1-3.7-6.3-7.7-3.2-4-10.4-11.4-15.9-16.5-5.6-5.1-10.6-9.8-11.2-10.3-6.8-6.4-28.6-22.2-43.2-31.2-27.6-17.1-45.7-26.6-62.5-32.7-15.4-5.5-48.1-15.1-65.4-19.2-3.3-.7-7.6-1.8-9.5-2.4-9.6-2.7-42-9.6-56-12-6.2-1-12.5-1.9-28.5-4-4.4-.5-10.2-1.2-13-1.5-4.5-.4-7-.7-18.5-2-1.9-.2-6-.7-9-1-3-.3-7.1-.8-9-1-1.9-.2-6-.7-9-1-5-.5-8.4-.9-16-2-1.4-.2-5-.7-8-1.1-3-.4-6.4-.8-7.5-.9-5.7-.8-19.5-2.6-23-3.1-2.2-.3-5.1-.7-6.5-.9-1.4-.2-5-.6-8-1s-6.6-.8-8-1c-7.1-1-16.5-2-28-2.9-4.1-.4-9.5-.8-12-1.1-2.5-.2-9-.7-14.5-1.1-5.5-.4-11.3-.8-13-.9-1.6-.2-3.6-.3-4.4-.4-.8-.1 2.2-2.5 6.5-5.4 23.5-15.8 51-36.7 61.9-46.9 6.3-5.9 14-16.5 16.3-22.3 2.4-6.3 3.1-14.7 2.8-33.5-.3-19-1.1-25.5-5.1-42.3-2.4-10.4-6.4-22.6-9.3-28.2-9.2-18.4-33.4-51-49.6-67-5.8-5.8-23.4-21.1-29.6-25.8-.9-.7-4.7-3.7-8.5-6.8-3.9-3-23.2-17.6-43-32.4-42-31.3-57.1-43.5-91-73-3.3-2.9-10.5-9-16-13.6-5.4-4.6-10.6-9.1-11.5-9.9-2.7-2.7-33.3-27.5-41.5-33.6-7.1-5.4-23.6-17-49.5-34.9-4.7-3.3-33-22.3-63-42.3l-54.5-36.4 12.5.6c40.7 1.9 88.4 2.6 101 1.4 23.2-2.2 82.8-16 127-29.3 10.2-3.1 19.6-5.8 20.9-6.1 1.4-.3 2.8-.7 3.3-1 .4-.3 1.6-.7 2.5-.9 1-.2 6.5-1.8 12.3-3.5 13.3-3.9 32.3-8.7 37.5-9.4 2.2-.4 6.5-1.1 9.5-1.6s8-1.2 11-1.5c3-.3 7.1-.8 9-1 11.3-1.3 17.4-1.7 27.4-1.7 6.1.1 12 .3 13.1.5 1.2.3 4.8.8 8 1.2 3.3.4 6.8.9 7.9 1.1 1.6.3 8.1.9 19.9 1.9 5.5.4 21.2-2.9 33.5-7.1 17.7-6 22.6-9.3 39.4-26.4 12.3-12.5 16.7-17.3 24.3-26.5 2.8-3.3 5.3-6.2 5.6-6.5 1.9-1.8 19.6-24.2 24.4-31 11.3-16 14.8-25.9 17.9-50 1.3-10 1.5-51.8.2-58-.2-1.4-.7-4.3-1-6.5-2.1-15.6-13.5-40.2-24.8-53.6-17.4-20.7-47.7-51.3-69.8-70.5-2.5-2.1-6.5-5.8-9-8-15.8-14.6-32.7-27.4-74.5-56.9-37.7-26.6-50.9-36.4-77-56.9-18.8-14.8-99.1-79-100.7-80.5-.9-.9-3.1-2.8-5-4.2-3-2.4-20.5-16.7-25.3-20.8-13.7-11.5-34.8-28.7-51-41.6-22.1-17.7-23.2-18.6-24.9-20-.6-.6-9.9-8.2-20.6-17-18.3-15-25.8-21.5-23.5-20.2.6.3 3.4.8 6.4 1.2 3 .4 6.3.9 7.5 1.1 1.2.2 3.7.6 5.6.9 4 .5 22.3 3.3 26 3.9 1.4.3 6.1 1 10.5 1.6 4.4.6 9.4 1.4 11 1.6 1.7.3 4.1.7 5.5.9 1.4.2 4.5.7 7 1 4.4.6 32.1 5.1 37 6.1 1.4.2 10.2 1.8 19.5 3.4 16.4 2.8 19.7 3.3 29.5 4.5 2.5.3 6.1.8 8 1 4.7.7 29.6.7 34 0 1.9-.3 6.2-.7 9.5-1 5.1-.5 16.5-2.1 28-4.1 19-3.2 30.3-7.7 52.7-21 25.6-15.4 36.5-27.1 54.8-58.9 9.5-16.7 22.1-45.5 25.5-58.5.2-.8.9-3.1 1.5-5 3.2-9.7 4.4-29.1 2.6-40.5-1.3-8-6.2-14.9-18.6-26-5.4-4.8-7.3-5.8-16.5-8.4-8-2.3-11-4.2-11.8-7.1-1-4 3.7-8 18.9-16 9.6-5 9.9-5.2 15-11.5 3.8-4.7 16.4-23.1 16.4-24 0-.3 2.3-4.4 5.2-9.2 2.8-4.8 7.3-13.2 9.9-18.8 7.9-16.5 22.2-62.1 26.5-84 .2-1.1.6-3.1.9-4.5.4-2.3.8-5 2-14.8.2-2 .7-7.3 1-11.7.3-4.4.8-10.3 1.1-13 .6-5.6.6-39.1 0-44.5-.2-1.9-.7-6.4-1-10-.4-3.6-.9-8.5-1.1-11-.2-2.5-.6-6.1-.9-8-.2-1.9-.7-6.4-1.1-10-.3-3.6-1.7-11.9-3-18.5s-2.6-13.2-2.9-14.7c-.2-1.5-.7-3.1-.9-3.5-.3-.5-.8-2.6-1.1-4.8-.4-2.2-1.3-6.7-2.1-10.1-.8-3.4-1.6-7.3-1.9-8.5-.7-3.7-8.2-38.5-10.1-46.9-6.1-26.2-18-73.1-20.9-82-8.4-26-22-61-31-80.3-2-4.2-3.6-8-3.6-8.3 0-.3 2.3 2.5 5.2 6.3 2.9 3.7 5.7 7.3 6.3 7.9.5.6 2.1 2.6 3.5 4.4 1.4 1.8 5.4 6.9 8.9 11.4s7.4 9.4 8.7 11.1c24.3 31.1 36.1 47.3 57.3 78.7 15.5 22.9 40.5 58.8 43.6 62.6.8.9 4.3 5.3 7.8 9.7 10.5 13 28 29.9 56.2 54.4 8.7 7.5 34.2 27.3 41.5 32.1 1.3.8 3.5 2.4 4.9 3.6 1.4 1.2 10 7.1 19.1 13.1 44.3 29.6 66.1 40.9 84 43.8 1.9.3 5.8 1 8.5 1.5 4.5.8 9.6 1.4 20.5 2.6 4.3.4 36.9.4 42.6-.1 5.9-.4 15.5-1.5 18.4-2 1.4-.2 4.5-.7 7-1 7.4-1 19.1-4.4 24.5-7.3 17-9 44.4-34.6 49.1-45.7 3-7.2 5.3-15.4 8.6-29.8 1.2-5.3 2.4-9.7 2.8-9.7.3 0 1.4 1.9 2.5 4.2 4 9.4 22.4 45.8 27.1 53.8 13.6 22.9 31.7 50.5 40.4 61.4 2 2.5 13.2 15.8 14.5 17.2.5.6 3.9 4.5 7.5 8.5 14.5 16.5 47 48 61.5 59.6 31.8 25.4 83.5 64.2 98.4 73.8 18.4 11.9 58.6 29 75.5 32.1 1.2.2 4.3.8 6.9 1.3 8.6 1.6 15.7.8 21.7-2.3 11.1-5.7 25.6-18.2 30.9-26.5 2.7-4.2 6.4-14.1 7.6-20.1 1.2-5.9 3.4-19.9 4-24.9.4-3 .8-6.1 1-7 .3-1.8 1.4-9.9 2.1-15.1.2-1.9.6-5.1.9-7 .2-1.9.7-6 1-9 .3-3 .8-7.1 1-9 .3-1.9.7-6.4 1-10 .3-3.6.8-7.6 1-9 .2-1.4.7-5 1.1-8 .4-3 .8-5.7.9-6 .1-.3.5-2.3.9-4.5 2.2-11.1 11-46.2 14.7-59 8.7-29.7 15.4-46.5 30.5-76.7 5.7-11.4 12.5-25.4 15-31 2.5-5.7 5.9-12.9 7.5-16.1 1.5-3.1 2.9-5.9 2.9-6.2.1-.6 4.6-10.8 7.5-17 1.3-2.8 4.1-9.1 6.3-14 2.2-5 8.8-18.9 14.7-31 13-26.6 15.4-32 18.9-41 1.5-3.9 3.1-7.9 3.6-9 4.8-10.7 29.4-88.2 31.4-99 .3-1.7 1.9-9.3 3.5-17 1.6-7.7 3.2-16.3 3.5-19 .4-2.8.9-6.4 1.1-8 .6-4.2 1.3-9 2-15.5.4-3 .9-6.6 1.1-8 .2-1.4.6-5.2.9-8.5.3-3.3.8-7 1-8.2 2.6-12.1 2-82.9-1-127.3-.3-3-.7-10-1-15.5-.4-5.5-.8-11-1-12.3-.2-1.3 0-2.2.5-2 .5.2 4.4 3.7 8.7 7.8 14 13.6 34.4 30.4 49.9 41.2 6 4.2 18.4 11.2 18.4 10.3 0-.3 1.3.1 2.9 1 4.2 2.1 18.2 6.2 31.1 9 10.9 2.4 11.1 2.5 18.2 2.9 14.1.8 32.9-3.8 53.2-13.1 9.9-4.6 11.7-5.5 22.6-11.6 12.5-7 40.6-29.5 56-44.9 19.8-19.7 42.3-46.4 52.6-62.3 15-23.1 28.4-47.8 36.4-67 3.2-7.7 8.3-19.4 11.3-26 5.2-11.5 7.3-15.9 18.5-39.6 15.2-32.2 39.4-79.7 45-88.4 6.3-9.7 5.9-11.2 5.9 18.3.1 23.8.7 44 1.7 54.2.7 6.1 1.7 14.4 2.1 17 .2 1.4.7 4.7 1 7.5 1.1 9.9 4 28.5 6.1 39 3.9 19.9 17 66 24.9 88.1 6.2 17.1 15.3 35.7 23.3 47.4 3.5 5.2 6.9 9.9 7.6 10.5.6.5 2.5 2.8 4.1 5 1.7 2.1 3.7 4.7 4.5 5.5.8.9 3.5 4.1 6 7.1 10.6 12.7 24.7 25.6 36.1 33.2 14.4 9.6 36.5 20.9 44.4 22.7 3.3.7 6.5 1.5 7 1.6 4.5 1.2 17.6 3.7 26.5 5 7.3 1 20.5 2 36.8 2.6 3.9.1 7.2.5 7.2.8 0 .3-1.7 8.6-3.9 18.5-7 32.6-8.4 42.5-8.5 60 0 29.1 2.1 42.8 9.5 62 5.8 15.2 10.1 21.2 21.3 30.3 13.3 10.7 37.8 25.6 53.4 32.5 11.9 5.4 33.9 10.6 55.7 13.3 2.8.3 6.1.8 7.5 1 13.6 2.2 48.6 2.2 58 .1.8-.2 3.3-.7 5.5-1.2 2.2-.4 9-2 15-3.6 26.6-6.8 50.5-15.1 71.5-24.7 1.9-.8 3.7-1.6 4-1.7 8.1-2.5 48.8-29.1 76.8-50.3 1.8-1.4 3-1.9 2.8-1.1-.8 2.3-7.8 26.3-8.1 27.9-1.8 9.1-18.8 60.3-29.2 88-9.5 25.3-14.4 35.2-36.5 73-12 20.5-20.6 36-29.8 53.5-2.3 4.4-5.8 11.1-7.9 15-2 3.8-6.1 11.5-9 17-12.6 23.6-23.4 42.8-39.6 70-19.9 33.5-30.7 52.1-37.5 64.9-9.1 17.2-10.1 19.1-11.1 20-.5.6-.9 1.6-.9 2.4 0 .8-.9 2.7-2.1 4.3-1.1 1.6-1.7 2.9-1.3 2.9.3 0 .2.6-.4 1.2-3.5 4.4-24.3 49.2-25.6 55.3-.2.5-2.1 6.8-4.3 14-6.5 20.7-8.8 28.4-16.2 56-6.3 23.3-17.5 67.3-18.5 72.9-.2 1.1-1.5 7.7-2.9 14.6-2.7 13.3-3.3 16.8-4.3 25.2-.4 2.9-.8 5.5-1 5.9-.1.3-.6 3.9-.9 8-.3 4-.8 9-1.1 10.8-.7 5.3-.6 32.1.1 36.5 1.7 10.1 11.6 32.6 19.9 45 5.8 8.7 17.3 22.6 24 28.9 13.6 12.8 36.5 26.8 47.8 29.1 1.3.3 3.4.7 4.8 1.1 1.4.3 4.1.7 6 1 1.9.3 4.4.7 5.5.9 10.8 2.2 38.7 2.9 54 1.3 12.9-1.4 38.2-7.9 53-13.7 1.7-.6 3.7-1.3 4.5-1.5 10.6-2.1 54.1-23.4 86-42 23.7-13.8 66.3-41.9 81.5-53.7 20.7-16.1 41.8-36.3 99.5-95.6 12.9-13.3 23.7-24.2 24-24.2.3 0 .5 5.3.6 11.8.3 30.3 2.1 36.9 16.2 58 11.5 17.2 38.5 39.3 52.7 43.1 10.4 2.7 47.1 3.2 60 .7 1.1-.2 4.3-.7 7-1 2.8-.4 5.7-.9 6.5-1.1.8-.2 3.3-.6 5.5-.9 2.2-.4 6.3-1.1 9-1.6 2.8-.6 6.1-1.2 7.5-1.5 1.4-.3 3.6-.7 5-1 1.4-.3 3.4-.7 4.5-.9 1.1-.2 15.5-3.2 32-6.6 16.5-3.4 30.8-6.3 31.8-6.5 1-.2 2.6-.6 3.5-.9.9-.3 3.5-.8 5.7-1.2 2.2-.3 6.9-1.3 10.5-2.1 3.6-.8 7.6-1.7 9-1.9 1.4-.3 3.3-.7 4.2-1 1-.3 3-.7 4.5-1 3-.5 29.5-6.1 32.8-6.9 1.1-.3 7.4-1.7 14-3.1 6.6-1.4 12.7-2.7 13.5-2.9.8-.2 6.9-1.6 13.5-3 6.6-1.5 12.9-2.9 14-3.1 3.5-.7 5.9-1.2 10.5-2.3 2.5-.5 5.6-1.2 7-1.5 1.4-.2 7.8-1.6 14.2-3 6.4-1.4 12.7-2.7 14-3 1.3-.2 7.7-1.5 14.3-2.9 6.6-1.4 13.6-2.9 15.5-3.2 1.9-.3 7.8-1.4 13-2.5 5.2-1 11.3-2.1 13.5-2.4 2.3-.4 5.2-.8 6.5-1.1 6.4-1.2 13.9-2.5 17.4-3 2.1-.2 4.6-.7 5.5-.9.9-.3 7.9-1.4 15.6-2.6 14.2-2.1 18-2.7 22.5-3.5 1.4-.3 4.1-.7 6-1 1.9-.3 8.2-1.2 14-2.1 13.1-1.9 15.4-2.3 21.1-2.9 2.5-.3 5.6-.8 6.9-1 1.3-.2 6-1 10.4-1.6 11.5-1.6 11.8-1.7 15.1-2.2 1.7-.3 5.5-.9 8.5-1.2 3-.4 6.3-.9 7.2-1.1 9.4-1.7 30-2 34.1-.5l2.7 1-5.7 5.3c-3.1 2.9-7.1 6.6-8.8 8.3-1.8 1.6-9 8.4-16.1 15-7 6.6-16.7 15.6-21.3 20-14.4 13.5-23.2 21.8-34.1 32.1-16 15-81.4 80.6-91.7 91.9-12 13.2-15.1 16.9-24.8 30-23.1 31.1-39.1 58-50.5 85-2.3 5.5-5 11.8-6 14-1 2.2-3.5 8.3-5.5 13.5-1.9 5.2-4 10.4-4.5 11.5-1.7 3.6-10.9 31.9-12.4 38-2.7 11.2-4.2 23.4-5.2 41.5-1.2 23.3-.9 39.3 1.2 61.8.3 2.9.6 10.1.7 16 .1 10.2 0 11-2.8 15.7-4.9 8.5-12 14.6-42.5 36.2-3.3 2.4-15.8 14.1-25.2 23.5-9.6 9.7-12.8 15.9-13.2 25.6-.2 6.6.6 17.1 1.9 23.6 1.7 8.2 13.8 34.3 23.5 50.6 1.8 3 4.1 7 5.1 8.8 5.8 10.2 26 42.2 36.5 57.7 11.5 17.1 13.7 20.3 22 31.9 1.9 2.8 7.2 10.2 11.7 16.5 4.5 6.4 8.7 12.3 9.4 13.1.7.8 5.5 7.3 10.8 14.3 5.3 7 10.6 14 11.9 15.5 7.3 8.5 24.6 28.2 27.5 31.4 3 3.4 14.6 18.1 21.1 26.8 4.1 5.6 10.3 13.5 11 14 .3.3 1.6 1.8 2.9 3.5 2.7 3.6 13.8 15.2 17.2 18 1.3 1.1 6.1 4.7 10.6 8s8.2 6.4 8.3 6.8c0 .5-.3.6-.7.4-.5-.3-6.6-.8-13.8-1.2-90.3-4.7-180.9-6-211.5-3-1.9.2-7.8.7-13 1-5.2.4-10.3.9-11.2 1-2.9.6-21.6 1.5-40.3 2-18 .5-30.8 1.2-35.5 2.1-1.4.2-4.1.7-6 1-14.3 2.3-73.3 25.8-116.5 46.4-50.4 23.9-69.9 34.8-110.5 61.5-52.9 34.7-67.3 48.2-92.7 86.3-17.7 26.6-28.4 51.9-27.9 65.7.5 12.2 8.8 33.1 17.6 44.5 5.7 7.4 25.4 26.7 37 36.4 12.6 10.4 12.3 10.1 22 17.6 4.7 3.5 11.2 8.5 14.5 11 9 6.9 46.7 33.7 57.4 40.9 7.8 5.3 34.6 21.8 45.6 28.1 19 10.9 56.9 33.6 63.8 38.2 3.2 2.1 6 3.8 6.3 3.8.5 0 17.4 11.9 19 13.5.7.5 2.4 1.9 4 3 4.4 3.2 18.8 14.9 32.4 26.4 6.9 5.8 13.6 11.5 14.9 12.6 1.3 1.1 2.9 2.5 3.5 3 .6.6 5.6 4.8 11.1 9.5s10.9 9.3 12 10.3c1.1 1 3.3 2.8 4.8 4 1.6 1.2 3.6 2.9 4.5 3.8 6.1 5.9 30.8 25.9 48.2 38.9 12.2 9.1 24.6 18.9 30.4 24 6.7 5.9 26.5 24.3 37.5 34.8l8.6 8.3-6.5-.6c-3.6-.4-8.5-.8-11-1.1-2.5-.2-7-.7-10-1-3-.3-7.7-.8-10.5-1-2.7-.2-6.8-.6-9-.9-2.2-.2-7.1-.7-11-1-3.8-.3-9.2-.8-12-1-6.8-.6-15.1-1.2-27-2-5.5-.3-13.1-.8-17-1-3.8-.3-12.8-.8-20-1.1-7.1-.3-15.7-.7-19-.9-50.2-2.4-138.7-2.4-162 0-16.8 1.8-23.2 3.1-37.3 8-10.7 3.7-46.5 17.5-56.7 21.9-1.6.8-11.8 5.1-22.5 9.6-29.1 12.4-45.1 20.6-60.3 31.1-24.5 16.8-30.1 20.6-34.7 23.1-2.5 1.4-6.3 3.5-8.5 4.8-9.1 5.1-29.5 14.9-36 17.3-6.6 2.3-18.4 4.8-25 5.2-34.5 2.3-73.9 2.3-92.2 0-1.6-.2-6.6-.6-11.3-1-4.7-.3-10.1-.8-12-1-1.9-.2-6.2-.7-9.5-1-3.3-.4-7.3-.8-9-1-9.7-1.1-13.3-1.6-16-2-1.6-.2-5-.7-7.5-1-2.5-.3-6.1-.8-8-1.1-1.9-.3-5.5-.8-8-1.1-2.5-.2-5.6-.6-7-.8-14.6-2.5-56.9-2.5-79 0-1.9.2-6.2.6-9.5 1-23.6 2.4-35.4 5.4-58.5 14.8-28.5 11.7-47.6 22.5-58.9 33.6-11.1 10.9-14.6 17.9-16.7 33.6-.3 2.7-.8 5.9-1 7-.5 2.2-1.2 25.1-1.9 59-.2 12.1-.6 22.9-.9 24-.2 1.1-.7 5.4-1.1 9.5-.4 4.1-.8 8.2-1 9-.2.9-.6 4.7-1 8.5-.3 3.7-.8 8.3-1.1 10.2-.2 1.8-.6 5-.9 7-2 15.6-3.7 26.4-6 37.4-1.9 9.7-6.3 19.5-7.9 17.8-.7-.8-13.6-22.2-13.6-22.6 0-.2-.8-1.6-1.9-3.1-1-1.5-8.3-13.5-16.1-26.7-7.8-13.2-20.4-33.2-27.9-44.4-7.5-11.2-14-21-14.6-21.9-.5-.8-1.5-2.3-2.2-3.1-.6-.9-6.9-9.5-14-19.1-7-9.6-13.7-18.6-14.9-20-1.2-1.4-5.5-6.6-9.6-11.5-8.4-10.2-26.5-29.1-47.8-50-22.6-22.2-32.3-31.4-54-51-3-2.8-5.7-5.2-6-5.5-2.4-2.5-30.2-25.7-34.1-28.5-1.5-1.1-7.8-5.9-14.1-10.6-17.3-13.1-35.5-26.1-54.8-38.9-29.6-19.8-41.7-26.5-67-37.2-5.2-2.2-10.8-4.6-12.5-5.3-20.3-8.9-50.9-18.6-63-20-2.7-.3-5.7-.8-6.6-1.1-3.2-.9-17.5-1.2-22.4-.4-10.8 1.8-14.5 2.9-20.6 6.1-14.7 7.9-31.2 22-34.4 29.4-2.6 6.3-5.2 19.3-5.4 27.8-.5 17.8 9.4 33.1 27.5 42.3 6.6 3.4 8.1 3.7 15.1 3.7 8.2-.1 20.5-2.7 41.8-8.9 18.5-5.3 18.6-5.4 25.8-6.8 10.8-2.2 31.1-.7 54.2 3.9 3.9.8 8.1 1.6 9.5 1.9 6.3 1.1 24.8 5.9 33.2 8.6 16.3 5.2 47.2 21.5 65.3 34.5 10.1 7.2 24 20.5 48.5 46.6 21.2 22.5 39.1 40.1 64.9 63.9 41.2 37.9 85.4 82.9 102.7 104.5 10.4 12.9 18.4 26.6 31.2 52.8 4.5 9.2 8.2 16.9 8.2 17.1 0 .6 12.9 27.6 17.7 37.1 7.4 14.4 14 23.5 17.2 23.5 2.1-.1 5.6-2.9 7.1-5.9 2.8-5.4 11.8-31.2 16.6-47.4 2.9-9.9 10.4-39.3 11.9-46.2 5.1-25.3 9.5-48 9.9-51.5.4-2.5 1-6.8 1.4-9.5.9-6.2.8-30.7-.1-39.5-3.7-35.8-2.5-52.3 4.6-61.6 7.1-9.3 29.3-22.8 43.3-26.4 7.8-2 21.8-4.7 39.4-7.5 4.6-.7 15.6-2.1 24-3 3-.3 7.1-.8 9-1 9.9-1.1 27.1-2.5 39-3 12.3-.6 49.9-.7 50.7-.2.5.3 3.5.8 6.8 1.1 5.3.6 20.3 2.9 26 4 1.1.2 4.2.7 6.8 1 2.7.4 5.6.9 6.5 1.1 4.1.7 17.2 2.5 22.2 3 3 .2 8.2.7 11.5 1 46.2 4 105 1.2 126.3-6.1 7.3-2.5 25.9-11.2 34.2-16 8.6-5 13.8-9.5 26.6-22.8 10.7-11.1 23.8-22.6 25.7-22.6.2 0 4.4-2.3 9.3-5.1 29.1-16.7 70.8-34.6 95.3-41 19.1-4.9 40.4-9.4 49.6-10.5 2.8-.4 5.2-.8 5.5-.9.3-.2 5.5-.7 11.5-1.2 20.2-1.5 72.2-.8 92.5 1.2 2.5.2 7.7.7 11.5 1 7.9.6 15.8 1.4 19.5 2 1.4.2 4.3.6 6.5.9 2.2.3 10.3 1.5 18 2.5 24.4 3.5 27.9 3.9 38.5 4.6 4.1.2 10.9.7 15 1 4.1.2 12 .7 17.5 1 16.1.9 23.8 1.5 27.5 1.9 1.9.3 6 .8 9 1.1 6.3.7 9.2 1.2 17 2.5 3 .5 7.5 1.2 10 1.5 2.5.3 5.2.8 6 1 .8.2 3.5.7 6 1 2.5.2 5.4.7 6.6.9 1.2.2 4.5.7 7.4 1.1 2.9.4 6.2.9 7.4 1.1 1.2.2 4.1.6 6.6.9 2.5.3 5.6.7 6.9.9 9.8 2 32.9 2.8 40.7 1.3 13.4-2.5 20.3-3.9 23.4-4.7 1.9-.5 5.1-1.2 7-1.4 11-1.5 20-6.9 23.5-14.2 1.4-2.9 1.5-4.1.5-6.4-1.6-3.9-3.5-5.4-10.6-8.3-6.5-2.6-13.8-7.2-26.9-17.1-9.8-7.3-29.9-23.1-34-26.7-1.6-1.5-6.8-5.9-11.5-9.9s-9.8-8.4-11.5-9.8c-9.9-8.7-30.5-27-39.6-35.2-10.3-9.3-20.2-18.2-32.4-29-3.3-2.9-6.2-5.6-6.5-5.9-.5-.6-28.2-25-35.4-31.1-1.6-1.4-3.4-3-4-3.5-.6-.6-4-3.5-7.6-6.5-3.6-3-6.7-5.7-7-6-.3-.3-4.1-3.5-8.5-7-4.4-3.6-8.2-6.7-8.5-7-.8-.8-21.8-16.2-27.2-19.8-2.6-1.8-17.3-10.2-32.6-18.6-15.3-8.5-32.1-18-37.3-21.1-5.2-3.2-15.5-9.5-22.9-14-42.5-25.7-90.9-57.3-102.8-67-.9-.7-5.3-4.3-9.7-7.8-10.6-8.5-17.8-15.5-25.6-25.2-21.2-26.3-35.2-49.7-42.5-71.1-4.2-12.2-3.8-26.8 1.1-38.3 9.9-23.6 25.9-42.7 63-75 6-5.3 33.8-23 51-32.6 30.4-16.9 36.3-20 64.5-34.1 47.3-23.6 72-33.6 90.5-36.8 1.7-.3 4.1-.7 5.5-1 1.4-.3 3.8-.8 5.3-1.2 1.6-.3 3.8-.7 5-.9 2.4-.3 17.3-2.5 19.7-3 5.4-1 26.9-3.1 41.5-4 4.4-.3 10.7-.7 14-1 5.7-.4 9.8-.7 35-2 53.5-2.9 114.1-3.6 182.5-2.2 17.3.3 31.5.2 34.4-.4 5.8-1.1 17.4-6.7 19-9.1.7-1.2.6-2.6-.6-5-1.4-3-11.8-17.3-16.7-23-1.1-1.3-7-8.4-13.1-15.8s-11.9-14.4-12.8-15.5c-.9-1.1-5.2-6.3-9.6-11.5-4.3-5.2-8.8-10.6-10-12-3-3.5-15.9-19.2-17.3-21-.6-.8-3.6-4.4-6.5-8-4.8-5.8-35.7-45-41.2-52.3-1.1-1.6-2.6-3.4-3.1-4-.6-.7-11-14.5-23.2-30.7-26.2-35-39.2-54-52.3-76.5-1-1.7-5.4-9.2-9.8-16.7-16.1-27.6-24.8-46.7-25.6-56.3-.3-3.6.2-5.1 2.9-9.2 3.9-5.7 20.5-22 33.6-32.7 22.8-18.8 23.9-19.8 32.6-28.6 12.9-13.1 15.1-16.5 16.4-25.6 1.3-9.5 1.5-18.8.5-34.9-2.6-46.3-2.6-49.7-.1-62.5.3-1.4.9-5 1.5-8 1.8-9.8 4.8-18.8 8.5-25.7 3.4-6.3 11.5-24.7 11.4-25.9-.1-.2.8-2.8 1.9-5.7 1.1-2.9 4.2-11.3 6.8-18.7 12.9-37 15.7-42.4 35.3-69.8.6-.9 4.4-6.3 8.4-11.9 14.3-20 23.2-32 31.5-42.3 7.6-9.4 53.8-56.1 119.8-121 12.6-12.4 24.3-24.1 26-26.1 4.4-5 19.1-24.6 20.5-27.2.7-1.2 1.5-2.4 1.9-2.7 1.2-.9 6.5-9.5 8.3-13.3 1-2.3 1.7-6.2 1.7-10.1v-6.3l-6.2-4c-10.2-6.6-12.3-7.4-19.6-7.5-6-.1-15 .6-22.2 1.7-1.4.2-6.3.7-11 1-16.2 1.2-18.5 1.3-25 1.9-3.6.3-9.2.8-12.5 1.1-9.1.7-18.7 1.6-22 2-1.6.2-6.6.7-11 1.1-4.4.3-8.8.8-9.8 1-.9.1-5.4.6-10 .9-4.5.3-8.9.8-9.7 1-.8.2-4.2.6-7.5 1-3.3.3-8 .8-10.5 1.1-2.5.2-6.5.7-9 .9-2.5.3-5.8.7-7.5.9-1.6.3-6.1.8-10 1.1-3.8.4-7.9.9-9 1.1-1.1.2-4.9.7-8.5 1-3.6.3-7.2.7-8 .9-.8.3-4.2.7-7.6 1-3.3.3-7.2.8-8.5 1-1.3.3-4.9.7-8 1-3.1.3-6.6.8-7.9 1-1.2.2-4.8.7-7.9 1.1-3.1.3-6.5.8-7.6 1-1.1.2-4 .7-6.5 1-2.5.3-5.2.7-6 .9-.8.3-3.5.7-6 1-2.5.3-5.6.7-7 1-2.9.5-6.7 1.1-13 2-8.8 1.2-45.6 7.6-55.5 9.5-5.5 1.1-11 2.2-12.3 2.5-1.3.2-3.1.6-4 .9-.9.3-2.8.7-4.2 1-1.4.2-13.7 3.2-27.5 6.6-48.7 12-70 17.2-71.5 17.5-.8.2-5.3 1.2-10 2.3-11.4 2.7-23.8 5.3-27.5 5.8-1.6.2-3.8.7-4.7 1-1 .3-3 .8-4.5 1-1.5.3-5.9 1.2-9.8 2-12.7 2.8-24.3 4.4-33.5 4.9-10.8.5-29.9-8.6-40.7-19.4-5.5-5.6-6.5-9.5-7.8-31.6-1.3-21.6-.6-45.8 2-67.5.3-2.5.8-6.8 1.1-9.5.3-2.8.8-5.4 1.1-5.8.3-.5 1.1-3 1.8-5.5.8-2.6 2.2-7.9 3.3-11.7 3.1-10.5 3.5-16.2 1.6-21.7-3.1-9.5-6.6-9.4-20.1.4-17.7 12.7-56.8 44.5-61.8 50.2-.5.6-3 2.9-5.5 5-4.1 3.5-21.1 19.1-26.5 24.1-1.1 1.1-4.8 4.5-8.1 7.5s-11.6 10.7-18.4 17.1c-6.9 6.3-14.9 13.7-17.9 16.5-3 2.7-6.6 6-8.1 7.4-7.3 6.8-27.9 25-36 31.7-1.4 1.2-5.4 4.5-9 7.5-26.9 22.5-51.2 40.5-66.4 49.3-9 5.1-47.1 24.2-62.1 31-36.5 16.7-70.4 30.9-81 34-8.9 2.6-31.3 2.6-45.8-.1-5.8-1-13.7-3.3-17.3-5-5.1-2.4-18.1-11.9-24.6-17.9-13.2-12.3-27.4-36.1-30.1-50.6-.3-1.3-.8-3.5-1.1-4.9-.6-2.7-1.1-5.4-2.6-14-.6-3-1.2-6.6-1.5-8-.4-2.3-.8-4.8-2.2-15-.3-2.5-.7-5.4-1-6.5-.2-1.1-.6-7.4-.8-14-.3-9 .1-14.4 1.5-21.8 1.9-9.8 9.3-40.6 11.1-46.2.5-1.7 2.1-7.3 3.5-12.5 6-22.6 17.6-59.5 24.3-77.7 12.7-34.3 16.2-42.4 31.7-73.8 11.9-24.1 14.4-28.6 26.7-48.5 4.9-8 9.6-15.6 10.4-17 .8-1.4 2.2-3.7 3.1-5.2 8.1-12.7 37.7-63.3 43.9-74.8 2.2-4.1 6.9-12.9 10.3-19.5 6.4-12.3 12.8-23.6 23-40.5 15.7-26 29.9-53.4 40.5-78 3.7-8.5 8.7-19.8 11.2-25 2.5-5.2 5.1-10.9 5.8-12.5 1.9-4.2 4.1-12.2 6.5-24.3 1.2-5.7 4.6-19.4 7.7-30.5 3-11.1 8-29.7 11.1-41.2 3-11.6 6.3-23.9 7.3-27.5 4.4-15.9.2-21.6-11.3-15.6-1.5.8-5.5 2.9-9 4.7-8.4 4.4-20.1 11.9-39.3 25.4-18.6 13-48.6 32-58.3 36.9-16.5 8.3-57.5 19.7-79.7 22.2-2.7.3-5.6.7-6.2.9-6.8 2.2-36.4 2.3-49.3.1-1.9-.3-5.3-.7-7.5-1-3.4-.4-6.6-1.1-15.5-3.1-2.4-.6-14.3-4.5-16.5-5.4-1.1-.5-5.8-2.4-10.5-4.2-24-9.3-43.8-21.9-60.5-38.4-11.8-11.6-15.4-17.1-16.1-24.7-.6-6.4-.5-49.3.1-57.3 2.7-35.9 4.5-45.7 10.5-56.8 5.4-9.9 5.4-12.6.4-17.8-7.7-7.9-15.6-10.3-39.9-12.4-16.8-1.4-24.2-2.6-41.5-7-16.8-4.2-47.7-17.6-61.7-26.8-7.2-4.7-24.5-22-31.8-32-8.8-11.7-12.2-19.5-22.3-51.2-10.8-33.6-15.9-51.3-21.6-74.5-1.7-6.9-4-19.9-5.1-29-.4-3-.9-6.2-1-7-.1-.8-.6-4.6-1-8.3-.3-3.7-.8-7.6-1-8.5-.2-1-.6-5.1-.9-9.3-.3-4.1-.8-8.5-1.1-9.8-.2-1.3-.7-5.6-1-9.5-.3-4-.7-8.2-1-9.4-.2-1.2-.6-5.9-1-10.5-1.4-20.8-2.3-30.9-3-36.7-.3-1.9-.7-6.7-1-10.5-1.9-28.1-4.1-36.5-10.8-40.5-3.9-2.4-5.6-2.5-8.7-.3z"/><path d="M2193.5 1128.8c-15.3 1.3-28.8 4.8-42.5 10.9-21.7 9.9-34.4 16.9-46.1 25.8-47 35.5-76.3 67-100.2 107.7-11.6 19.7-22.9 48.4-32.2 81.3-3.3 11.7-10.2 39.5-11.1 44.5-.3 1.4-.9 3.8-1.4 5.5-2.7 8.7-7.3 36.7-10.5 63.5-1.6 13.9-2.1 32.3-1.1 43 .3 2.5.7 7.6 1.1 11.5.3 3.8 1.1 9.9 1.6 13.5.6 3.6 1.3 7.8 1.6 9.5.8 5.5 8 25.9 12.2 34.6 7.9 16.6 28.5 45.3 43.1 59.9 13.1 13.2 43.4 33.4 72 47.9 22.6 11.6 29.6 14.1 50.8 18.6 22.1 4.7 45.4 1.1 61.2-9.4 21.6-14.3 30.9-25.9 47-58.6 14.6-29.7 40.3-96.8 49.6-129.5 3.5-12.2 6.5-23.3 6.9-25 .2-.8 1.2-4.9 2.4-9 3.5-13 7-32.1 9.6-53 .2-1.9.9-6.9 1.4-11 3.3-24.9 4.6-47.4 4.6-78.5 0-33.6-1-53.1-3.6-74-.6-4.4-1.2-9.6-1.4-11.5-.4-4.9-1.6-13.2-2-15-.2-.8-.7-3.5-1-6-1-7.4-4.5-22.6-6.6-29.3-3.7-11.1-9.9-19.7-24.9-34.5-11.5-11.4-17.3-15.6-30.4-21.7-17.3-8.3-20.8-9.2-41.1-11.4-3.3-.3-7.3-.5-9-.3zM2487 1162.1c-20.2 2.1-40.9 9.3-49.9 17.5-3.6 3.2-11.5 13.3-14.8 18.9-.6 1.1-3.5 5.8-6.4 10.5-19.2 30.9-54.1 111.6-65.7 152-3.4 11.9-9.3 37-11.8 50.5-.9 4.9-1.8 9.9-2 11-.2 1-.6 3.6-.9 5.7-.3 2.1-.8 5.7-1.1 8-.3 2.4-.7 6.5-1 9.3-.2 2.7-.5 7.9-.8 11.5-3.2 42.2-2.8 64.1 1.3 74.1.5 1.3 2.3 6 4 10.4 1.6 4.4 4 10.2 5.2 13 1.2 2.7 2.3 5.2 2.4 5.5 2.1 6.4 19.2 41.2 25.8 52.5 10 17.2 26.2 39 35.3 47.4 7.3 6.9 23.2 19.3 28.8 22.6 9.5 5.5 29 11.6 42.6 13.1 7.6.9 9.8.9 16.5 0 8-1.1 10.6-1.6 17-3.2 3.3-.9 6.7-1.7 7.5-1.9 15.1-3.1 43.9-21.4 61.2-38.8 17-17 33.1-37.5 43.8-55.7 5.7-9.7 20.2-37.6 23.1-44.5.9-2.1 3.1-7.7 3.4-8.5.1-.3.5-1.2.8-2 1.2-2.9 7.8-25.6 9.2-31.5 1.8-7.9 2.1-9.7 4.2-26 1.6-12.9.8-73.5-1.2-88-.2-1.7-.6-5.5-1-8.5-.6-5.8-2.3-20.5-3-25.5-1.9-14-3.7-26.1-4-26.5-.2-.3-.6-2.7-.9-5.4-.6-4-3.1-17.4-6.2-32.2-2.5-12.3-7.9-26.5-16.2-42.9-15.5-30.5-29.1-48.4-51.2-67.3-6.7-5.7-22.5-14.6-27.8-15.7-.9-.2-3.5-1-5.7-1.9-5.6-2.2-21.1-6.3-26.7-7.1-6.3-1-25.9-1.1-33.8-.4zM1756.8 1538.5c-.2.2-3.2.6-6.8.9-7.8.7-9.6 1-22.7 4.1-15.3 3.6-25.3 7.9-34.1 14.4-16.2 12-43.2 41.2-64.4 69.6-.4.5-2 2.5-3.5 4.4-16.2 20.1-29.8 43.1-42.8 72.6-2.6 6-5.8 13.2-7 16-1.2 2.7-6 14-10.5 25s-8.8 21.3-9.5 23c-6.3 14.1-36 86.5-43.7 106.5-6.5 16.9-9.7 29.2-11.3 43.5-.3 2.7-.8 6.3-1 8-.5 3.6-1.7 22.2-1.9 32-.2 7.8 1.3 28.1 2.8 36 .2 1.1.7 4.2 1 6.8.4 2.7.9 5.7 1.1 6.7.2.9.6 3.3.9 5.1 3.2 20 12.6 47.5 22 64.3 7.2 12.8 26.1 35.6 38.1 45.9 15.6 13.4 23.1 18.1 33.5 21.1 9.3 2.6 25.9 5.2 40 6.1 11.8.9 49.7.9 53.6.1 1.6-.3 4.9-.8 7.4-1.1 10.4-1.4 28.4-5.5 36-8.2 10.1-3.7 29-15 42-25.1 21.5-16.9 44.9-44.7 51.3-61.2 6.5-16.7 10.6-31.5 21.7-78.5 2.8-11.6 6.1-25.3 7.5-30.5 4.4-16.5 5.1-24.5 7-76 .4-9.1.8-20.8 1-26 2.5-64.3 2.5-139.3 0-157.5-.2-1.7-1.1-8.2-2-14.5-3.3-23.8-14.9-60-25.6-80-6.8-12.5-26.2-35-36.4-42-4.1-2.8-12.5-6.6-21.2-9.7-4.1-1.4-21.5-2.8-22.5-1.8zM2704.8 1759.5c-.2.1-4.3.6-9.3 1-25.2 1.9-36.8 5.1-55.3 15.3-8.4 4.5-23.9 16-26.2 19.3-.3.4-4.8 5.2-10 10.6-21.5 22.1-46.2 53.7-60.5 77.3-3.5 5.7-7.6 13.5-7.9 15-.1.3-.5 1-.9 1.7-3 4.7-22.7 60.7-28.6 81.3-7.8 27.1-16.4 61.9-18.7 75-.3 1.4-1.1 5.9-1.9 10-.7 4.1-1.9 10.9-2.6 15-.6 4.1-1.3 8.4-1.5 9.5-.2 1.1-.6 4.2-.9 7-.4 2.7-1.2 9.7-2 15.5-1.3 10.3-1.4 42.4-.1 53.5.4 2.7.8 6.8 1.1 9 .3 2.2.7 5.1 1 6.5.2 1.4.7 3.8 1.1 5.5 1.2 6.4 3.9 13.5 9.5 25.1 16.7 34.5 54.8 91.1 72.4 107.7 7.9 7.4 32 22.2 41.5 25.4 1.9.7 5.1 1.5 7 1.8 1.9.3 4.2.7 5 1 6.5 1.7 23.4 2.3 31.9 1.2 11-1.5 26.7-5.1 35-8.1 10.4-3.8 30.8-15.1 44.1-24.4 11.9-8.3 38.9-37 45.5-48.4.6-.9 4.2-7 8.1-13.5 17.6-29.1 22.2-40.2 33.9-81.7 3.6-12.7 7.7-26.5 9.2-30.6 1.4-4.1 5.4-15.8 9-26 7.7-22 10.4-30 10.9-32 .2-.8 1.9-7.6 3.9-15 1.9-7.4 3.7-14.6 4-16 .2-1.4 2.2-10.2 4.4-19.5 2.2-9.4 4.2-19 4.6-21.5.4-2.4.8-4.7 1-5 .2-.3.6-2.6 1-5 .4-2.5 1-6.5 1.5-8.9 1.1-5.9 1-19.7-.1-27.9-.5-3.7-1.2-8.5-1.5-10.7-.5-4.2-2.1-13.3-2.9-17.5-.3-1.4-.8-4.1-1.1-6-.5-2.9-3.6-18.7-6-29.9-.3-1.4-.7-2.8-1-3.3-.3-.5-.8-2-1-3.4-.3-1.5-3-11.2-6-21.6-5.8-20.2-9.2-29.2-17.6-46.6-10.6-21.8-16-29.6-31.7-45.2-13.6-13.5-22.2-18-40.1-21.1-5.6-1-50.3-2.2-51.2-1.4zM2112.8 2100.5c-.2.1-5.3.5-11.4.9-6.1.4-12.1.8-13.5 1.1-1.3.2-4.4.6-6.9.9-11.3 1.4-14 1.9-22.3 3.7-17.1 3.8-24.2 7-38.2 17.4-3.8 2.8-13.6 10.8-16.1 13-.6.5-4.9 4.4-9.5 8.5-8.9 8-33.4 32.2-38.4 38-28.8 33.5-45.6 50.9-67.5 69.5-5.8 5-10.7 9.3-11 9.6-3.5 4-37.1 29.4-47 35.5-19.5 12.1-31 17.5-53.6 25.3-42.7 14.6-50.3 18-62.1 27.5-12.1 9.8-18 15.1-30.3 27.5-18 18.2-26 30-45.5 67.6-3.7 7.1-8.9 17-11.5 22-23.1 43.6-28 56.7-30.5 82-.3 3.3-.8 7.8-1.1 10-1.1 9.3-1 48.5.1 58 2.4 19.4 3.9 24.7 9.3 34.5 15.8 28.4 62.7 79.8 85.9 93.9 2.8 1.8 8 3.8 11.5 4.5 8 1.6 27.7 1.2 41.8-.9 1.4-.2 4.8-.6 7.5-1 9.7-1.2 11.8-1.7 23.3-5.5 24.5-8 28.8-7.8 50.7 1.5 11.6 5 17.6 8.2 47.8 25.7 23 13.4 36.1 20 45.1 22.7 6.4 2 25 5.6 34.1 6.6 2.2.2 6.1.7 8.8.9 2.6.3 6 .8 7.5 1 1.5.3 6.5.8 11.2 1.2 4.7.3 9.9.8 11.5.9 1.7.2 7.1.6 12 1 5 .4 10.6.8 12.5 1 1.9.2 10.7-.7 19.5-2.1 23.6-3.7 26.5-4.1 34-5 2.8-.3 6.1-.7 7.5-.9 22.6-3.4 41.4-2.5 51.5 2.5 7.2 3.5 20.2 13.2 29 21.5 25.9 24.6 35.6 32.2 51 39.8 27.6 13.7 51.3 22 71 24.7 18.7 2.6 46.7 3.4 58.3 1.7 2.8-.4 6.9-1 9-1.3 23.8-3.4 39.4-9.4 60.2-23.1 14.2-9.4 21.6-16.5 29.8-28.6 16.1-23.8 28.3-49.2 34.7-72 1.4-5.2 17.1-66.9 18-70.7.2-.8 1.5-6.2 2.8-12 9.4-38.9 10.2-45.7 10.2-88.5-.1-26.5-.8-38-3-49.5-3.5-18.3-8-37.1-11.7-49.5-1.2-3.9-2.2-7.5-2.4-8-2.8-12.9-15.2-36-29.5-55-11.5-15.4-17.9-21.3-36.9-34.1-8-5.4-47.6-29.6-60.3-36.9-17.4-9.9-36.8-25.3-44.2-35-2.4-3.1-6.1-11.6-6.9-15.7-.2-1.3-1.1-5.2-1.9-8.8-1.4-5.7-2.2-10.4-3.2-17.5-.5-2.9-2.8-17.2-4-24.5-2.2-13.1-11.1-38.3-23.5-67-11.3-25.8-18.5-36.5-38.5-56.6-11.9-12.1-18.1-17.2-25.7-21-5-2.5-24.3-7.9-31.9-8.8-2.4-.3-5.3-.8-6.4-1-1.1-.2-4.9-.7-8.5-1.1-3.6-.4-7.8-.9-9.5-1.1-3.5-.5-42.2-1.4-42.7-.9zM2022.5 3019.2c-.4 2.4-2.2 11.9-4.1 21.3-1.8 9.3-3.5 18.1-3.7 19.5-.3 1.4-4.2 20.9-8.7 43.5-4.5 22.5-8.3 41.9-8.6 43-.2 1.1-1.5 7.6-2.9 14.5-1.5 6.9-2.8 13.6-3.1 15-.2 1.4-.9 4.5-1.4 7-.5 2.5-1.2 5.6-1.4 7-.2 1.4-2.1 10.4-4.1 20-2 9.6-3.9 18.6-4.1 20-.3 1.4-1.4 6.5-2.4 11.5-1.1 4.9-2.2 10.2-2.5 11.7-.9 4.8-1.5 7.8-3 14.2-.8 3.3-1.6 7.2-1.9 8.6-.4 2.2-2.6 12.7-7.2 33.5-.9 3.8-1.8 8-2 9.2-.2 1.2-2 9.3-4 18s-3.7 16.5-3.9 17.3c-1.2 5.6-5.2 22.7-8.1 35-6.7 27.5-8.6 35.5-9 37.6-2.7 14-18.8 66.3-29.2 94.9-7.1 19.4-19.8 53.5-26.2 70-3.4 8.8-7.3 18.9-8.7 22.5-8.4 21.9-12.6 32.7-13.4 34.5-.4 1.1-9.4 23.4-19.8 49.5-23.5 58.8-23.2 58.2-24.6 60-.7.8-3.5 5.5-6.4 10.5-31.1 53.5-100.6 164-107.1 170.5-.3.3-2.5 3.2-5 6.5-8.1 11-28.7 34.3-55.8 63.4-17.8 19.1-45.3 47.6-81.3 84.1-9.3 9.5-16.9 17.4-16.9 17.5 0 .2 4.6-1.7 10.3-4.2 5.6-2.4 17.9-7.6 27.2-11.4 9.4-3.9 17.9-7.4 19-7.9 9.7-4.4 38.8-15 50.5-18.3 9.6-2.8 10.9-3 33.5-5.2 2.2-.2 8.7-.7 14.5-1.1 5.8-.3 11.9-.8 13.5-.9 1.7-.2 5.1-.3 7.7-.4l4.6-.1 5.5-8.8c22.7-36.7 75.7-128.4 91.7-158.7 3.5-6.6 8-15.2 10-19 4.1-7.8 13.1-28.5 18-41.5 1.8-4.7 3.8-9.9 4.5-11.5 1.1-2.6 8-21.1 15-40.5 5.7-15.5 18.9-53.1 25.5-72.5 15.2-44.5 21.1-62.6 23.6-72 .1-.6 4.2-13.8 8.9-29.5s8.8-29.2 9-30c.2-.8 4-13.9 8.5-29s8.8-30 9.6-33c.8-3 3.3-11.8 5.5-19.5 7.6-26.5 28.7-113.8 32.5-134.5.3-1.4.7-3.3 1-4.2.3-1 .8-3 1-4.5.3-1.6 2.1-10 4.1-18.8 1.9-8.8 3.7-16.9 3.9-17.9.2-1.1 1.2-6.3 2.3-11.5 1.1-5.3 2.3-11.2 2.6-13.1.3-1.9.8-4.2 1-5 .2-.8.6-2.6.9-4 1.2-7 3.9-21.3 5.1-27.5.8-3.9 1.6-8.8 2-11 .3-2.3.7-5 .9-6 .2-1.1.7-4 1.1-6.5.4-2.5.9-5.4 1.1-6.5.5-2.6 1.4-8.4 1.9-13.1.3-2.2.7-4.6 1-5.4.2-.8.7-4.4 1-8 .3-3.6.8-7.2 1-8 .2-.8.7-4.4 1.1-8 .3-3.6.8-8.1 1-10 .2-1.9.6-16.3.9-32 .2-15.7.6-29.4.9-30.5.2-1.1.7-6.3 1.1-11.5.3-5.2.8-10.6 1-12 .2-1.4.7-5 1-8 1.8-18.8 4.1-38.3 5.1-43.2.4-2.2-.6-4.6-5.1-11.3-3-4.7-5.7-8.5-5.9-8.5-.3 0-.7 1.9-1.1 4.2z"/></svg>